<svg xmlns="http://www.w3.org/2000/svg" data-name="Layer 1" viewBox="0 0 168 168" id="Creator"><path fill="#2d3c56" d="M126.51331 47.524a8.51536 8.51536 0 00-2.51056-6.061l-6.4649-6.465a8.57168 8.57168 0 00-12.122-.00012.36852.36852 0 01-.26312.11438.3371.3371 0 01-.16107-.04059 44.94074 44.94074 0 00-7.60791-3.1593.35057.35057 0 01-.24066-.34094A8.58116 8.58116 0 0088.57153 23H79.42847A8.58114 8.58114 0 0070.857 31.57141a.35075.35075 0 01-.24078.34106 44.93841 44.93841 0 00-7.60779 3.15924.3371.3371 0 01-.16107.04059.36175.36175 0 01-.257-.10815 8.57161 8.57161 0 00-12.12817-.0061l-6.465 6.46509A8.57153 8.57153 0 0043.99725 53.585a.358.358 0 01.07373.424 45.01993 45.01993 0 00-2.24432 4.9917H46.131q.67712-1.59677 1.47784-3.12543a4.35365 4.35365 0 00-.7771-5.11267l-.0061-.006a4.57145 4.57145 0 010-6.465l6.465-6.46509a4.57152 4.57152 0 016.46509-.00006l.00623.00623a4.352 4.352 0 005.11273.7771 40.805 40.805 0 016.92889-2.87756A4.35167 4.35167 0 0074.857 31.57147v-.00006a4.57144 4.57144 0 014.57147-4.57147h9.14307a4.57149 4.57149 0 014.57153 4.57147v.00006a4.3516 4.3516 0 003.05341 4.16064 40.8091 40.8091 0 016.92889 2.87756 4.352 4.352 0 005.11267-.7771l.00623-.00623a4.57152 4.57152 0 016.46509.00006l6.465 6.46509a4.57145 4.57145 0 01-.00006 6.465l-.006.006a4.35376 4.35376 0 00-.77716 5.11267q.80447 1.52518 1.47784 3.12543h4.30438a45.0186 45.0186 0 00-2.24426-4.99164.355.355 0 01.06763-.418A8.52038 8.52038 0 00126.51331 47.524zM94 98.13123a12.02574 12.02574 0 00-6.2832-10.54871L77.13715 82.31561a16.9037 16.9037 0 01-1.70172 3.61981l10.42542 5.189A7.9987 7.9987 0 0190 98.13123v12.86908a2.00224 2.00224 0 01-2 1.99994H82v-7.99994a2 2 0 00-4 0v7.99994H44v-7.99994a2 2 0 00-4 0v7.99994H34a2.00224 2.00224 0 01-2-1.99994V98.13123a7.97366 7.97366 0 014.06543-6.96869l10.49945-5.22668A16.905 16.905 0 0144.863 82.3161l-10.65356 5.3045A11.99886 11.99886 0 0028 98.13123v12.86908a6.00655 6.00655 0 006 5.99994H88a6.00655 6.00655 0 006-5.99994z" class="color2d4356 svgShape"></path><path fill="#2d3c56" d="M108.17065,59.00067h4.67755a32.94511,32.94511,0,0,0-54.43774-4.78131,15.59164,15.59164,0,0,1,5.37573.03009,28.9364,28.9364,0,0,1,44.38446,4.75122Z" class="color2d4356 svgShape"></path><path fill="#bdd3f9" d="M74 77.00055V71.00061a13 13 0 00-26 0v5.99994a13 13 0 0026 0zm-22 0V71.00061a9 9 0 0118 0v5.99994a9 9 0 01-18 0zM83.33838 121.18964a2.00064 2.00064 0 00-.85059-.18945H32a4.00427 4.00427 0 00-4 4v3.99994a4.00427 4.00427 0 004 4H82.48779a2.00064 2.00064 0 00.85059-.18945l8.51221-3.99994a2.00069 2.00069 0 000-3.62109zM38 129.00012H32v-3.99994h6zm44.0415 0H42v-3.99994H82.0415l4.25586 2zM138 91.00043a2.0001 2.0001 0 002-2V73.00055a2.00009 2.00009 0 00-2-1.99994H120a2.00009 2.00009 0 00-2 1.99994V89.00043a2.0001 2.0001 0 002 2zM122 75.00055h14V87.00049H122z" class="color0bceb2 svgShape"></path><path fill="#2d3c56" d="M100,75.00055h12a2,2,0,1,0,0-3.99994H100a2,2,0,1,0,0,3.99994Z" class="color2d4356 svgShape"></path><path fill="#bdd3f9" d="M100,83.00049h12a2,2,0,1,0,0-3.99994H100a2,2,0,1,0,0,3.99994Z" class="color0bceb2 svgShape"></path><path fill="#2d3c56" d="M100 91.00043h12a2 2 0 100-3.99994H100a2 2 0 100 3.99994zM100 99.00037h38a2 2 0 100-3.99994H100a2 2 0 100 3.99994z" class="color2d4356 svgShape"></path><path fill="#bdd3f9" d="M100,107.00031h38a2,2,0,1,0,0-3.99994H100a2,2,0,1,0,0,3.99994Z" class="color0bceb2 svgShape"></path><path fill="#2d3c56" d="M100,115.00024h38a2,2,0,1,0,0-3.99994H100a2,2,0,1,0,0,3.99994Z" class="color2d4356 svgShape"></path><path fill="#bdd3f9" d="M100,123.00018h38a2,2,0,1,0,0-3.99994H100a2,2,0,1,0,0,3.99994Z" class="color0bceb2 svgShape"></path><path fill="#2d3c56" d="M100 131.00012h38a2 2 0 100-3.99994H100a2 2 0 100 3.99994zM90.55778 15.86a3 3 0 10-3-3A3.00344 3.00344 0 0090.55778 15.86zm0-4.5a1.5 1.5 0 11-1.5 1.5A1.50148 1.50148 0 0190.55778 11.36zM125.05778 6.94658a2 2 0 102 2A2.00229 2.00229 0 00125.05778 6.94658zm0 3a1 1 0 111-1A1.001 1.001 0 01125.05778 9.94658zM61.55342 3a2 2 0 102 2A2.00229 2.00229 0 0061.55342 3zm0 3a1 1 0 111-1A1.001 1.001 0 0161.55342 6zM133.05778 30.94658a2 2 0 102 2A2.00229 2.00229 0 00133.05778 30.94658zm0 3a1 1 0 111-1A1.001 1.001 0 01133.05778 33.94658zM11.09989 50.82428a2 2 0 10-2 2A2.00229 2.00229 0 0011.09989 50.82428zm-3 0a1 1 0 111 1A1.001 1.001 0 018.09989 50.82428z" class="color2d4356 svgShape"></path><polygon fill="#bdd3f9" points="45.641 27.958 47.128 26.002 46.189 25.47 45.235 27.66 45.203 27.66 44.233 25.486 43.278 26.034 44.749 27.943 44.749 27.974 42.448 27.676 42.448 28.74 44.764 28.443 44.764 28.474 43.278 30.383 44.169 30.947 45.187 28.74 45.218 28.74 46.157 30.931 47.143 30.368 45.641 28.49 45.641 28.459 48.003 28.74 48.003 27.676 45.641 27.989 45.641 27.958" class="color0bceb2 svgShape"></polygon><polygon fill="#bdd3f9" points="8.834 16.013 7.978 17.112 8.492 17.437 9.078 16.166 9.095 16.166 9.636 17.428 10.204 17.103 9.339 16.022 9.339 16.004 10.699 16.166 10.699 15.554 9.339 15.734 9.339 15.716 10.195 14.59 9.655 14.283 9.105 15.544 9.087 15.544 8.528 14.292 7.978 14.607 8.826 15.707 8.826 15.725 7.501 15.554 7.501 16.166 8.834 15.995 8.834 16.013" class="color0bceb2 svgShape"></polygon><polygon fill="#bdd3f9" points="163.224 48.66 163.224 47.617 160.907 47.923 160.907 47.893 162.365 45.975 161.444 45.453 160.508 47.601 160.477 47.601 159.526 45.468 158.589 46.005 160.032 47.878 160.032 47.908 157.775 47.617 157.775 48.66 160.047 48.369 160.047 48.399 158.589 50.271 159.464 50.824 160.462 48.66 160.492 48.66 161.413 50.809 162.38 50.256 160.907 48.414 160.907 48.384 163.224 48.66" class="color0bceb2 svgShape"></polygon><polygon fill="#bdd3f9" points="158.501 6.532 159.759 4.878 158.965 4.428 158.157 6.281 158.13 6.281 157.31 4.441 156.501 4.904 157.746 6.519 157.746 6.546 155.8 6.294 155.8 7.194 157.759 6.943 157.759 6.969 156.501 8.584 157.256 9.061 158.117 7.194 158.143 7.194 158.938 9.048 159.772 8.571 158.501 6.982 158.501 6.956 160.499 7.194 160.499 6.294 158.501 6.559 158.501 6.532" class="color0bceb2 svgShape"></polygon><circle cx="2" cy="149" r="2" fill="#2d3c56" class="color2d4356 svgShape"></circle><path fill="#2d3c56" d="M11 147H8a2 2 0 000 4h3a2 2 0 000-4zM160 147h-3a2 2 0 000 4h3a2 2 0 000-4z" class="color2d4356 svgShape"></path><circle cx="166" cy="149" r="2" fill="#2d3c56" class="color2d4356 svgShape"></circle><path fill="#bdd3f9" d="M118.15387 155h-8.30774a2.00641 2.00641 0 000 4h8.30774a2.00641 2.00641 0 000-4zM58.15387 155H49.84613a2.00641 2.00641 0 000 4h8.30774a2.00641 2.00641 0 000-4zM104 155H64a2 2 0 000 4H79.94v2H72a2 2 0 000 4H97a2 2 0 000-4H88.06v-2H104a2 2 0 000-4z" class="color0bceb2 svgShape"></path><path fill="#2d3c56" d="M150.72131,147H86v-5.99994h58a4,4,0,0,0,4-4V67.00061a4,4,0,0,0-4-3.99994H75.99182A16.88353,16.88353,0,0,1,77.505,67.00061H144v69.99945H24V67.00061H44.495a16.88353,16.88353,0,0,1,1.51318-3.99994H24a4,4,0,0,0-4,3.99994v69.99945a4,4,0,0,0,4,4H82V147H17.27869a2.017,2.017,0,1,0,0,4H150.72131a2.017,2.017,0,1,0,0-4Z" class="color2d4356 svgShape"></path></svg>